<svg width="20" height="20" viewBox="0 0 20 20" fill="none" xmlns="http://www.w3.org/2000/svg">
<path d="M5.19609 0C5.41807 0.138981 5.61734 0.29323 5.62595 0.588418C5.6373 0.966211 5.37148 1.24848 4.99251 1.24887C3.97697 1.25083 2.96182 1.24926 1.94628 1.24965C1.45104 1.24965 1.25099 1.45049 1.25099 1.9473C1.25099 2.94953 1.25099 3.95176 1.25099 4.95399C1.25099 5.34979 0.994166 5.62344 0.626552 5.62344C0.259329 5.62344 0.00172516 5.349 0.00133367 4.95477C0.00094217 3.92631 0.00133367 2.89824 0.00133367 1.86978C0.00133367 0.966994 0.485614 0.314371 1.35199 0.048154C1.38605 0.0375836 1.43382 0.0532434 1.44634 0H5.19609Z" fill="white"/>
<path d="M19.9996 18.5504C19.9166 18.6244 19.9248 18.7359 19.8896 18.8287C19.6246 19.5256 18.9669 19.993 18.2261 19.9946C17.1585 19.997 16.0909 19.9958 15.0233 19.9946C14.6447 19.9946 14.3746 19.7311 14.375 19.3686C14.375 19.0057 14.6443 18.7457 15.0253 18.7453C16.0408 18.7442 17.0564 18.7453 18.0719 18.745C18.5413 18.745 18.7496 18.5371 18.7496 18.0684C18.75 17.0662 18.7586 16.0636 18.7445 15.0614C18.7398 14.7306 18.9328 14.4632 19.2174 14.3845C19.5181 14.3015 19.7874 14.4444 19.9616 14.7697C19.9687 14.783 19.9867 14.7905 20 14.8002V18.5496L19.9996 18.5504Z" fill="white"/>
<path d="M19.9996 5.19436C19.8544 5.41869 19.6997 5.62501 19.3916 5.62501C19.0252 5.62501 18.7507 5.36192 18.75 4.99157C18.7484 3.96976 18.75 2.94835 18.7492 1.92655C18.7492 1.45754 18.5413 1.25005 18.0719 1.24965C17.0763 1.24926 16.0804 1.2383 15.0848 1.25513C14.6933 1.26179 14.4478 1.02259 14.3891 0.781425C14.3147 0.475667 14.4611 0.147202 14.7912 0.0309281C14.7982 0.0285792 14.7998 0.0105704 14.8041 0C16.0279 0 17.2517 0 18.4759 0C18.4881 0.0121364 18.499 0.0328856 18.5131 0.0352346C19.2366 0.155032 19.8003 0.689424 19.9589 1.40899C19.9656 1.43875 19.9558 1.47516 19.9992 1.48416V5.19436H19.9996Z" fill="white"/>
<path d="M2.5012 5.91732C2.5012 5.36414 2.49885 4.81096 2.50198 4.25738C2.50746 3.30683 3.30533 2.50466 4.25392 2.50113C5.3736 2.49683 6.49328 2.49722 7.61296 2.50113C8.57447 2.50426 9.37195 3.30331 9.37469 4.26717C9.37821 5.38019 9.37821 6.49321 9.37469 7.60623C9.37155 8.56892 8.57369 9.36953 7.61335 9.37305C6.50033 9.37697 5.38691 9.37619 4.2735 9.37305C3.30024 9.37031 2.50511 8.57127 2.5012 7.59684C2.49885 7.037 2.50081 6.47716 2.5012 5.91732ZM8.12581 5.94825C8.12581 5.42795 8.12738 4.90726 8.12542 4.38697C8.12386 3.97041 7.90462 3.75079 7.48689 3.75039C6.45217 3.74883 5.41784 3.74883 4.38312 3.75039C3.96852 3.75118 3.75163 3.97237 3.75124 4.39323C3.75007 5.4213 3.75007 6.44897 3.75124 7.47704C3.75163 7.90729 3.96813 8.1234 4.39917 8.12379C5.42058 8.12497 6.44238 8.12458 7.4638 8.12379C7.90893 8.12379 8.12425 7.91082 8.12542 7.47078C8.1266 6.9634 8.12542 6.45602 8.12542 5.94864L8.12581 5.94825Z" fill="white"/>
<path d="M14.0702 2.49931C14.6234 2.49931 15.177 2.49696 15.7302 2.4997C16.6948 2.5044 17.495 3.29874 17.4982 4.25947C17.5021 5.37249 17.5017 6.48552 17.4982 7.59854C17.4954 8.57258 16.6979 9.36927 15.7235 9.37201C14.6167 9.37515 13.51 9.37475 12.4032 9.37201C11.4194 9.36966 10.6266 8.57101 10.6247 7.58249C10.6227 6.48238 10.6223 5.38228 10.6247 4.28218C10.6266 3.296 11.4221 2.50283 12.4095 2.49892C12.9627 2.49696 13.5163 2.49892 14.0694 2.49892L14.0702 2.49931ZM11.8747 5.93664C11.8747 6.45694 11.8728 6.97763 11.8755 7.49792C11.8775 7.90077 12.0998 8.12197 12.5058 8.12275C13.5405 8.12471 14.5749 8.12432 15.6096 8.12275C16.0277 8.12197 16.2485 7.90312 16.2489 7.48696C16.2505 6.45263 16.2505 5.4183 16.2489 4.38397C16.2481 3.96859 16.0273 3.75014 15.6084 3.74975C14.5803 3.74857 13.5523 3.74857 12.5242 3.74975C12.092 3.75014 11.8763 3.96546 11.8751 4.39493C11.8735 4.90896 11.8751 5.423 11.8751 5.93664H11.8747Z" fill="white"/>
<path d="M5.92356 17.4963C5.37037 17.4963 4.8168 17.4986 4.26362 17.4959C3.30289 17.4904 2.50423 16.6914 2.50149 15.7291C2.49836 14.6161 2.49836 13.503 2.50149 12.39C2.50423 11.4273 3.3021 10.6267 4.26322 10.6236C5.37625 10.6201 6.48966 10.6205 7.60307 10.6236C8.57672 10.6263 9.37224 11.4238 9.37498 12.3994C9.37811 13.5058 9.37811 14.6125 9.37498 15.7189C9.37224 16.6941 8.57633 17.4912 7.60347 17.4955C7.04363 17.4983 6.48379 17.4959 5.92395 17.4959L5.92356 17.4963ZM5.93804 16.2466C6.45873 16.2466 6.97903 16.2486 7.49972 16.2459C7.90296 16.2439 8.12415 16.0219 8.12494 15.6156C8.12689 14.5812 8.1265 13.5469 8.12494 12.5126C8.12455 12.094 7.9057 11.8736 7.48954 11.8729C6.45482 11.8713 5.42049 11.8713 4.38576 11.8729C3.9696 11.8736 3.75154 12.0937 3.75076 12.5126C3.74919 13.5406 3.74958 14.5683 3.75076 15.5964C3.75115 16.0282 3.96647 16.2451 4.39594 16.2463C4.90998 16.2478 5.42401 16.2463 5.93804 16.2463V16.2466Z" fill="white"/>
<path d="M10.6258 12.7901C10.6258 12.3998 10.6238 12.0095 10.6262 11.6192C10.6297 11.0746 11.0732 10.6259 11.6155 10.6236C12.4157 10.6205 13.2163 10.6201 14.0165 10.6236C14.5482 10.6259 14.996 11.0738 14.9992 11.6055C15.0031 12.2561 15.0043 12.9068 14.9972 13.5571C14.9956 13.7015 15.0215 13.7559 15.1824 13.7513C15.6181 13.7383 16.0542 13.7454 16.49 13.7473C17.0573 13.7497 17.4977 14.1925 17.4996 14.7625C17.5016 15.3348 17.5016 15.9076 17.4996 16.48C17.4977 17.0492 17.0569 17.4936 16.4904 17.4955C15.9113 17.4979 15.3319 17.4979 14.7529 17.4955C14.197 17.4932 13.7534 17.0484 13.7507 16.4929C13.7483 16.0505 13.7448 15.6081 13.7534 15.1657C13.7562 15.033 13.728 14.9911 13.5866 14.9927C12.9426 15.0013 12.2982 14.9974 11.6542 14.9962C11.0603 14.995 10.6269 14.5581 10.6254 13.9607C10.6246 13.5704 10.6254 13.1801 10.6254 12.7897L10.6258 12.7901ZM12.8279 13.7469C13.0883 13.7469 13.3486 13.7426 13.609 13.7493C13.7127 13.752 13.755 13.7321 13.7534 13.6146C13.7468 13.081 13.7479 12.5474 13.7526 12.0142C13.7534 11.9104 13.7354 11.8682 13.618 11.8697C13.0844 11.8764 12.5507 11.8752 12.0171 11.8705C11.9134 11.8697 11.8711 11.8877 11.8727 12.0052C11.8793 12.5388 11.8805 13.0724 11.8719 13.6056C11.8699 13.736 11.9165 13.7528 12.0277 13.7497C12.2943 13.7422 12.5613 13.7473 12.8279 13.7473V13.7469ZM15.6138 16.2466C15.7896 16.2466 15.9654 16.2427 16.1408 16.2482C16.2242 16.251 16.2531 16.2282 16.2519 16.1405C16.2473 15.7956 16.2476 15.4511 16.2519 15.1062C16.2531 15.0232 16.2324 14.9935 16.1443 14.995C15.7994 14.9997 15.4545 14.9993 15.11 14.995C15.027 14.9939 14.9972 15.0146 14.9988 15.1027C15.0035 15.4476 15.0031 15.7921 14.9988 16.137C14.9976 16.22 15.0183 16.2517 15.1064 16.2482C15.2752 16.2416 15.4447 16.2463 15.6138 16.2463V16.2466Z" fill="white"/>
<path d="M3.33589 19.9963C2.8152 19.9963 2.29451 19.9983 1.77382 19.9959C0.800565 19.9912 0.00387179 19.1945 0.00152282 18.2201C-0.00121765 17.1529 0.000348334 16.0856 0.00152282 15.018C0.00152282 14.6399 0.264999 14.3713 0.62909 14.3721C0.990441 14.3729 1.25039 14.6438 1.25079 15.0243C1.25196 16.0395 1.25079 17.0546 1.25118 18.0701C1.25118 18.5388 1.45945 18.7459 1.92964 18.7459C2.93852 18.7463 3.94741 18.7459 4.95629 18.7459C5.35131 18.7459 5.62575 19.0031 5.62575 19.3699C5.62575 19.7375 5.3517 19.9947 4.95668 19.9951C4.41642 19.9959 3.87615 19.9951 3.33589 19.9951V19.9963Z" fill="white"/>
<path d="M6.8756 5.94724C6.93589 6.64488 6.66028 6.88761 5.94188 6.88761C5.21253 6.88761 4.94083 6.6484 4.99916 5.9351C5.00856 5.81883 4.99721 5.70099 5.00112 5.58393C5.01208 5.27034 5.27634 5.00765 5.59189 5.0006C5.81974 4.99551 6.04759 4.99629 6.27544 5.0006" fill="white"/>
<path d="M15.0001 5.94884C15.06 6.64452 14.7863 6.88882 14.0656 6.88843C13.3386 6.88803 13.1119 6.6504 13.1115 5.93553C13.1111 5.20891 13.355 4.98928 14.0491 4.98732C14.7828 4.98497 15.0596 5.21165 15.0001 5.94923V5.94884Z" fill="white"/>
<path d="M5.92629 14.9971C5.22668 15.057 4.93933 14.7771 4.99922 14.0622C5.0094 13.9393 4.99609 13.8148 5.00196 13.6915C5.01606 13.3974 5.27484 13.1351 5.56885 13.125C5.80923 13.1167 6.05078 13.1179 6.29116 13.1242C6.60318 13.132 6.86744 13.401 6.87449 13.7153C6.87958 13.9432 6.87919 14.171 6.87449 14.3985C6.86822 14.7227 6.60162 14.9881 6.27746 14.9967C6.1604 14.9998 6.04295 14.9971 5.92589 14.9971H5.92629Z" fill="white"/>
</svg>
