<svg width="151" height="250" viewBox="0 0 151 250" fill="none" xmlns="http://www.w3.org/2000/svg">
<g filter="url(#filter0_i_22_79966)">
<path d="M117.111 83.4347L116.646 82.8369C116.89 83.2133 117.052 83.42 117.111 83.4347Z" fill="white"/>
<path d="M147.298 146.694C147.475 146.244 145.409 139.483 145.409 139.483C139.652 119.703 116.75 83.0065 116.646 82.8368C112.735 76.7773 86.8361 25.9397 86.8361 25.9397C84.8507 21.4376 76.5623 1.79039 76.5623 1.79039C75.4774 -1.45708 74.3998 0.70544 74.3998 0.70544C74.2227 3.22961 65.4766 22.1535 65.4766 22.1535C57.3654 42.428 24.9276 97.0371 24.9276 97.0371C-2.10756 139.217 0.0549605 171.655 0.0549605 171.655C0.0549605 171.655 -1.83447 198.69 16.5432 220.854C16.5432 220.854 34.2345 245.306 68.7167 248.524C70.119 238.213 70.06 227.844 69.8976 217.466C69.8829 216.603 69.7721 215.739 69.6983 214.876C69.8386 211.805 68.5174 209.407 66.1557 207.599C60.4652 203.237 54.6271 199.096 48.2282 195.797C47.1949 195.266 46.2428 195.17 45.1431 195.516C40.604 196.941 36.5668 199.354 32.5518 201.812C30.5442 203.045 28.6031 204.373 26.6251 205.65C26.2192 205.908 25.6878 206.455 25.3262 205.849C25.0383 205.362 25.7542 205.133 26.1011 204.89C31.8211 200.86 37.5558 196.86 44.4124 194.077C36.5225 190.431 28.5441 188.261 20.2188 187.125C21.8204 186.497 23.3924 186.999 24.935 187.154C29.5774 187.627 34.0426 188.955 38.5227 190.158C38.5891 190.092 38.6555 190.018 38.7293 189.952C37.9248 188.372 37.113 186.8 36.3233 185.213C36.0797 184.719 35.7107 184.261 35.7845 183.656C35.7328 183.604 35.6295 183.508 35.6295 183.501C35.7845 183.302 35.7992 183.493 35.8509 183.589C37.0244 185.376 38.2127 187.154 39.3641 188.948C40.2719 190.357 41.4232 191.339 43.0691 191.93C48.2724 193.789 53.0846 196.579 58.3101 198.395C61.2549 199.421 64.2367 200.27 67.4251 199.996C68.6724 199.886 69.071 199.192 69.1079 198.063C69.1965 195.568 68.392 193.31 67.2111 191.191C65.8973 188.822 64.3696 186.571 63.0337 184.217C62.5096 183.294 61.7125 183.169 60.8711 183.043C53.9186 181.973 47.2023 180.039 40.7 177.368C36.6259 175.692 32.7141 173.677 29.1419 171.065C28.9353 170.917 28.7065 170.784 28.522 170.614C28.271 170.386 27.8356 170.171 28.0865 169.766C28.3743 169.301 28.7065 169.677 28.9943 169.854C29.5626 170.201 30.1088 170.577 30.6845 170.917C39.2091 175.891 48.5086 178.512 58.192 179.936C58.871 180.032 59.5426 180.416 60.4504 180.047C58.3248 176.681 56.2214 173.367 54.1253 170.046C52.8706 168.053 51.4166 166.156 50.4054 164.053C49.2688 161.669 47.3425 160.621 45.025 159.912C41.962 158.968 38.8179 158.665 35.6369 158.695C35.3269 158.695 35.0243 158.717 34.7143 158.709C34.4191 158.702 34.0279 158.746 33.9762 158.348C33.9098 157.838 34.3452 157.809 34.6995 157.802C37.1056 157.75 39.5117 157.654 41.9104 157.942C43.6891 158.156 45.4088 158.643 47.1358 159.093C47.1949 159.027 47.2613 158.968 47.3204 158.901C45.8295 155.993 44.346 153.071 42.8329 150.17C41.438 147.491 40.1169 144.782 39.0615 141.948C38.8917 141.483 38.4193 140.966 39.1722 140.236C42.3311 148.089 46.8775 155.019 51.6897 162.075C53.0108 155.521 55.6383 149.543 56.5682 143.114C56.8782 140.989 57.0923 138.848 56.9889 136.693C56.9668 136.258 56.6494 135.586 57.2546 135.527C57.9189 135.453 57.8672 136.221 57.8968 136.693C58.0739 139.21 57.8672 141.697 57.5056 144.192C56.7011 149.727 54.7526 154.975 53.5496 160.414C53.0477 162.673 53.2396 164.717 54.8264 166.599C56.738 168.865 58.4724 171.286 60.2881 173.633C60.5021 173.906 60.6497 174.364 61.0335 174.327C61.5206 174.275 61.5133 173.736 61.6387 173.382C63.3658 168.511 64.9526 163.603 66.1335 158.569C66.2442 158.112 66.0449 157.152 66.842 157.3C67.5211 157.425 67.1816 158.274 67.1151 158.768C66.3033 164.592 65.1962 170.356 63.6758 176.039C63.4248 176.976 63.4691 177.685 64.1186 178.43C65.8752 180.423 67.2111 182.778 69.2334 184.549C69.6541 184.918 70.06 185.316 70.5102 185.649C72.7539 187.28 74.85 186.512 75.47 183.818C75.7947 182.423 76.0973 181.028 76.3704 179.626C77.0051 176.349 78.0606 173.205 79.3817 170.142C79.6695 169.478 79.6622 168.946 79.3891 168.267C76.924 162.149 75.7283 155.735 74.8795 149.233C74.2153 144.184 74.5253 139.129 74.6138 134.073C74.6212 133.63 74.3407 132.818 75.0788 132.863C75.7209 132.899 75.4847 133.689 75.4921 134.169C75.5069 136.678 75.4109 139.195 75.4921 141.704C75.7431 150.148 77.3225 158.348 80.1862 166.297C80.2674 166.533 80.415 166.747 80.6585 167.212C81.6402 165.167 82.5037 163.271 83.4484 161.425C86.4523 155.551 89.0281 149.462 92.2609 143.697C92.9325 142.494 93.737 141.358 94.5193 140.228C94.7555 139.889 94.9622 139.158 95.4714 139.446C96.0545 139.771 95.4419 140.258 95.2574 140.59C92.5266 145.417 90.4452 150.532 88.5632 155.728C87.493 158.687 86.5556 161.691 85.8397 164.843C88.2753 163.16 90.7109 161.477 93.1539 159.802C93.5377 159.536 93.5967 159.167 93.6853 158.754C94.0765 156.901 94.4972 155.063 94.9105 153.218C94.881 152.458 95.1541 151.794 95.5083 151.152C95.7445 152.111 95.56 152.997 95.2205 153.868C95.0138 155.425 94.7998 156.99 94.5562 158.827C96.8221 157.337 98.9034 155.964 101.147 154.488C101.228 155.617 100.542 155.735 100.143 156.03C95.4271 159.462 90.6962 162.879 85.9578 166.275C85.264 166.769 84.8064 167.337 84.5776 168.201C82.8432 174.762 81.0128 181.301 80.164 188.062C80.1419 188.261 80.164 188.461 80.164 188.763C80.4002 188.697 80.5995 188.682 80.7471 188.586C86.0316 185.139 91.8844 183.006 97.8627 181.183C98.9551 180.851 99.7374 180.298 100.35 179.331C102.461 176.017 103.745 172.356 105.059 168.695C106.874 163.647 108.624 158.562 111.546 154.001C112.122 153.1 112.772 152.237 113.421 151.388C113.672 151.063 113.952 150.443 114.462 150.879C114.846 151.211 114.388 151.617 114.166 151.934C111.827 155.277 110.299 159.005 109.007 162.85C107.413 167.596 106.343 172.504 104.461 177.161C104.21 177.774 104.011 178.401 103.782 179.021L103.834 179.072C109.081 177.773 114.056 175.847 118.44 172.592C119.001 172.172 119.54 171.721 120.182 171.212C120.602 172.149 119.923 172.459 119.554 172.821C116.499 175.788 112.845 177.855 108.993 179.567C102.83 182.313 96.5785 184.874 90.4452 187.708C84.526 190.439 81.2785 195.022 80.4224 201.406C80.2378 202.772 80.0976 204.144 79.9279 205.517C79.8688 205.997 79.7729 206.587 80.5035 206.41C82.4299 205.945 84.4743 206.189 86.3564 205.377C87.3749 204.942 88.2163 204.417 88.8805 203.488C90.77 200.875 92.4159 198.085 94.571 195.664C95.2205 194.933 95.9512 194.336 96.7335 193.775C97.169 194.277 96.7335 194.483 96.5416 194.719C94.7407 197.015 92.9694 199.34 91.5006 201.871C91.2202 202.358 90.9028 202.838 90.7109 203.362C90.46 204.048 89.8695 204.809 90.5412 205.51C91.1685 206.159 91.9656 205.805 92.7037 205.576C96.1431 204.528 99.1101 202.639 101.907 200.447C106.026 197.214 110.557 194.815 115.68 193.612C118.041 193.059 119.547 191.383 120.927 189.582C121.673 188.616 122.189 187.479 122.861 186.453C123.156 186.003 123.193 184.94 123.961 185.331C124.654 185.693 123.924 186.438 123.71 186.933C123.001 188.579 122.108 190.136 120.971 191.538C120.691 191.885 120.433 192.262 119.968 192.889C124.426 192.741 128.588 193.037 132.788 194.631C132.138 195.184 131.636 195.015 131.186 194.919C120.691 192.719 111.694 195.701 103.871 202.764C101.937 204.513 99.885 206.1 97.6782 207.754C98.896 207.901 100.114 208.137 101.339 208.182C104.653 208.314 107.967 208.868 111.295 208.322C111.753 208.248 112.528 208.004 112.594 208.669C112.668 209.348 111.827 209.215 111.384 209.289C108.255 209.813 105.088 210.078 101.915 210.049C96.5416 209.99 91.1759 210.101 85.8323 210.698C82.393 211.075 80.0829 214.049 80.1198 218.227C79.7803 220.013 80.0607 221.799 80.1714 223.57C80.6807 231.681 81.2711 239.793 82.1937 247.874C82.2232 248.118 82.2306 248.369 82.238 248.613C96.18 247.218 128.153 239.933 144.493 202.964C144.493 202.964 154.856 183.501 147.283 146.738L147.298 146.694Z" fill="#84A27E"/>
</g>
<defs>
<filter id="filter0_i_22_79966" x="0" y="0" width="150.052" height="258.612" filterUnits="userSpaceOnUse" color-interpolation-filters="sRGB">
<feFlood flood-opacity="0" result="BackgroundImageFix"/>
<feBlend mode="normal" in="SourceGraphic" in2="BackgroundImageFix" result="shape"/>
<feColorMatrix in="SourceAlpha" type="matrix" values="0 0 0 0 0 0 0 0 0 0 0 0 0 0 0 0 0 0 127 0" result="hardAlpha"/>
<feOffset dy="10"/>
<feGaussianBlur stdDeviation="5"/>
<feComposite in2="hardAlpha" operator="arithmetic" k2="-1" k3="1"/>
<feColorMatrix type="matrix" values="0 0 0 0 0 0 0 0 0 0 0 0 0 0 0 0 0 0 0.25 0"/>
<feBlend mode="normal" in2="shape" result="effect1_innerShadow_22_79966"/>
</filter>
</defs>
</svg>
